<?xml version="1.0" encoding="utf-8"?>
<!-- Generator: Adobe Illustrator 17.0.0, SVG Export Plug-In . SVG Version: 6.00 Build 0)  -->
<!DOCTYPE svg PUBLIC "-//W3C//DTD SVG 1.1//EN" "http://www.w3.org/Graphics/SVG/1.1/DTD/svg11.dtd">
<svg version="1.1" id="Layer_1" xmlns="http://www.w3.org/2000/svg" xmlns:xlink="http://www.w3.org/1999/xlink" x="0px" y="0px"
	 width="720px" height="720px" viewBox="0 0 720 720" enable-background="new 0 0 720 720" xml:space="preserve">
<g>
	<linearGradient id="SVGID_1_" gradientUnits="userSpaceOnUse" x1="298.1839" y1="388.6082" x2="618.1839" y2="390.6082">
		<stop  offset="0.3854" style="stop-color:#0055FF"/>
		<stop  offset="1" style="stop-color:#0C41AC"/>
	</linearGradient>
	<path fill="url(#SVGID_1_)" d="M292.941,408.601c-3.257,0-4.885-1.68-4.885-5.042v-29.778c0-3.31,1.602-4.964,4.806-4.964
		c3.203,0,4.805,1.654,4.805,4.964v1.654c1.312-2.206,3.085-3.887,5.318-5.043c2.232-1.154,4.739-1.733,7.523-1.733
		c9.086,0,13.629,5.279,13.629,15.835v19.065c0,3.362-1.628,5.042-4.884,5.042c-3.309,0-4.963-1.68-4.963-5.042v-18.592
		c0-2.993-0.565-5.172-1.694-6.538c-1.13-1.366-2.875-2.048-5.239-2.048c-2.889,0-5.187,0.906-6.894,2.718
		c-1.707,1.812-2.56,4.214-2.56,7.208v17.253C297.903,406.922,296.249,408.601,292.941,408.601z"/>
	<linearGradient id="SVGID_2_" gradientUnits="userSpaceOnUse" x1="298.2392" y1="379.752" x2="618.2392" y2="381.752">
		<stop  offset="0.3854" style="stop-color:#0055FF"/>
		<stop  offset="1" style="stop-color:#0C41AC"/>
	</linearGradient>
	<path fill="url(#SVGID_2_)" d="M348.952,408.601c-3.362,0-6.316-0.813-8.863-2.442c-2.548-1.628-4.53-3.951-5.948-6.972
		c-1.418-3.02-2.127-6.579-2.127-10.675c0-4.148,0.709-7.706,2.127-10.674c1.419-2.967,3.4-5.265,5.948-6.894
		c2.547-1.626,5.501-2.442,8.863-2.442c2.73,0,5.199,0.605,7.405,1.812c2.206,1.21,3.861,2.811,4.964,4.807v-18.513
		c0-3.309,1.627-4.963,4.884-4.963c3.309,0,4.963,1.654,4.963,4.963v46.795c0,3.362-1.628,5.042-4.884,5.042
		c-3.257,0-4.884-1.68-4.884-5.042v-1.654c-1.103,2.1-2.758,3.769-4.964,5.002C354.23,407.984,351.736,408.601,348.952,408.601z
		 M351.71,401.118c2.941,0,5.304-1.063,7.09-3.19c1.785-2.127,2.679-5.265,2.679-9.415c0-4.2-0.894-7.339-2.679-9.414
		c-1.786-2.075-4.149-3.112-7.09-3.112c-2.942,0-5.305,1.037-7.09,3.112c-1.786,2.075-2.678,5.213-2.678,9.414
		c0,4.15,0.893,7.288,2.678,9.415C346.404,400.054,348.767,401.118,351.71,401.118z"/>
	<g>
		<linearGradient id="SVGID_3_" gradientUnits="userSpaceOnUse" x1="312.2424" y1="379.2504" x2="632.2424" y2="381.2504">
			<stop  offset="0.3854" style="stop-color:#0055FF"/>
			<stop  offset="1" style="stop-color:#0C41AC"/>
		</linearGradient>
		<path fill="url(#SVGID_3_)" d="M420.292,361.649c-1.839,0-3.269-0.459-4.293-1.379c-1.024-0.919-1.536-2.192-1.536-3.821
			c0-1.681,0.512-2.967,1.536-3.86s2.455-1.339,4.293-1.339c3.887,0,5.831,1.733,5.831,5.199S424.179,361.649,420.292,361.649z
			 M420.292,408.601c-1.576,0-2.784-0.473-3.624-1.418c-0.84-0.945-1.26-2.258-1.26-3.939v-28.912c0-3.572,1.628-5.358,4.884-5.358
			c3.31,0,4.964,1.786,4.964,5.358v28.912c0,1.681-0.422,2.993-1.26,3.939C423.155,408.129,421.92,408.601,420.292,408.601z"/>
		<linearGradient id="SVGID_4_" gradientUnits="userSpaceOnUse" x1="312.1891" y1="387.7742" x2="632.1891" y2="389.7742">
			<stop  offset="0.3854" style="stop-color:#0055FF"/>
			<stop  offset="1" style="stop-color:#0C41AC"/>
		</linearGradient>
		<path fill="url(#SVGID_4_)" d="M440.38,408.601c-3.257,0-4.884-1.68-4.884-5.042v-29.778c0-3.31,1.602-4.964,4.805-4.964
			c3.203,0,4.807,1.654,4.807,4.964v1.654c1.311-2.206,3.083-3.887,5.317-5.043c2.231-1.154,4.739-1.733,7.523-1.733
			c9.086,0,13.629,5.279,13.629,15.835v19.065c0,3.362-1.629,5.042-4.884,5.042c-3.31,0-4.964-1.68-4.964-5.042v-18.592
			c0-2.993-0.564-5.172-1.694-6.538s-2.875-2.048-5.239-2.048c-2.889,0-5.186,0.906-6.893,2.718c-1.708,1.812-2.56,4.214-2.56,7.208
			v17.253C445.344,406.922,443.69,408.601,440.38,408.601z"/>
		<linearGradient id="SVGID_5_" gradientUnits="userSpaceOnUse" x1="312.2444" y1="378.918" x2="632.2444" y2="380.918">
			<stop  offset="0.3854" style="stop-color:#0055FF"/>
			<stop  offset="1" style="stop-color:#0C41AC"/>
		</linearGradient>
		<path fill="url(#SVGID_5_)" d="M496.393,408.601c-3.362,0-6.316-0.813-8.864-2.442c-2.548-1.628-4.53-3.951-5.948-6.972
			s-2.127-6.579-2.127-10.675c0-4.148,0.709-7.706,2.127-10.674c1.418-2.967,3.4-5.265,5.948-6.894
			c2.548-1.626,5.502-2.442,8.864-2.442c2.73,0,5.199,0.605,7.405,1.812c2.206,1.21,3.86,2.811,4.963,4.807v-18.513
			c0-3.309,1.628-4.963,4.885-4.963c3.309,0,4.963,1.654,4.963,4.963v46.795c0,3.362-1.629,5.042-4.884,5.042
			c-3.258,0-4.885-1.68-4.885-5.042v-1.654c-1.103,2.1-2.757,3.769-4.963,5.002C501.671,407.984,499.176,408.601,496.393,408.601z
			 M499.15,401.118c2.94,0,5.305-1.063,7.09-3.19s2.678-5.265,2.678-9.415c0-4.2-0.893-7.339-2.678-9.414
			c-1.785-2.075-4.15-3.112-7.09-3.112c-2.941,0-5.306,1.037-7.09,3.112c-1.786,2.075-2.678,5.213-2.678,9.414
			c0,4.15,0.892,7.288,2.678,9.415C493.844,400.054,496.209,401.118,499.15,401.118z"/>
		<linearGradient id="SVGID_6_" gradientUnits="userSpaceOnUse" x1="312.1934" y1="387.0846" x2="632.1934" y2="389.0846">
			<stop  offset="0.3854" style="stop-color:#0055FF"/>
			<stop  offset="1" style="stop-color:#0C41AC"/>
		</linearGradient>
		<path fill="url(#SVGID_6_)" d="M547.835,408.601c-4.359,0-8.114-0.813-11.265-2.442c-3.152-1.628-5.582-3.939-7.288-6.932
			c-1.706-2.993-2.56-6.54-2.56-10.636c0-3.991,0.827-7.484,2.481-10.477c1.654-2.993,3.939-5.344,6.855-7.052
			c2.915-1.705,6.236-2.56,9.965-2.56c5.462,0,9.781,1.733,12.958,5.201c3.178,3.466,4.767,8.193,4.767,14.179
			c0,1.944-1.26,2.915-3.783,2.915h-23.79c0.734,6.882,4.673,10.321,11.816,10.321c1.365,0,2.901-0.17,4.608-0.512
			c1.706-0.342,3.321-0.933,4.845-1.772c1.366-0.788,2.521-1.037,3.468-0.748c0.945,0.288,1.615,0.854,2.009,1.694
			c0.394,0.84,0.445,1.772,0.158,2.797c-0.29,1.024-1.038,1.903-2.245,2.639c-1.84,1.156-3.953,2.009-6.343,2.56
			C552.101,408.326,549.883,408.601,547.835,408.601z M546.417,375.199c-2.889,0-5.227,0.893-7.011,2.678
			c-1.786,1.785-2.864,4.202-3.23,7.247h19.379c-0.21-3.203-1.09-5.659-2.639-7.365S549.199,375.199,546.417,375.199z"/>
		<linearGradient id="SVGID_7_" gradientUnits="userSpaceOnUse" x1="312.1933" y1="387.1074" x2="632.1932" y2="389.1074">
			<stop  offset="0.3854" style="stop-color:#0055FF"/>
			<stop  offset="1" style="stop-color:#0C41AC"/>
		</linearGradient>
		<path fill="url(#SVGID_7_)" d="M573.989,408.601c-1.155,0-2.114-0.329-2.875-0.985c-0.761-0.656-1.155-1.509-1.182-2.56
			s0.406-2.154,1.3-3.309l10.872-13.393l-10.085-12.446c-0.945-1.155-1.391-2.258-1.339-3.309s0.46-1.903,1.221-2.562
			c0.761-0.656,1.72-0.985,2.875-0.985c1.208,0,2.218,0.211,3.033,0.63c0.814,0.422,1.563,1.078,2.246,1.969l7.72,9.927l7.799-9.927
			c0.736-0.892,1.497-1.547,2.284-1.969c0.788-0.419,1.76-0.63,2.915-0.63c1.208,0,2.179,0.343,2.916,1.024
			c0.734,0.684,1.114,1.55,1.142,2.601c0.025,1.051-0.433,2.154-1.379,3.309l-10.085,12.368l10.951,13.393
			c0.945,1.103,1.39,2.179,1.339,3.23c-0.053,1.051-0.461,1.917-1.221,2.6c-0.762,0.682-1.747,1.024-2.956,1.024
			c-2.1,0-3.833-0.867-5.199-2.6l-8.586-10.794l-8.508,10.794c-0.684,0.841-1.419,1.484-2.207,1.93
			C576.195,408.378,575.198,408.601,573.989,408.601z"/>
	</g>
	<path fill="#11C293" fill-opacity="0.3" d="M213.698,278.942h-26.941c-3.72,0-6.735,3-6.735,6.7v24.896v1.903v17.4v7.496v15.87
		v1.53v1.903v21.463v1.903v1.53v23.366c0,3.7,3.016,6.7,6.735,6.7h26.941c3.72,0,6.735-2.999,6.735-6.7v-23.366v-1.53v-1.903V356.64
		v-1.903v-1.53v-15.87v-7.496v-17.4v-1.903v-24.896C220.433,281.942,217.418,278.942,213.698,278.942z"/>
	<path fill="#9ECBFF" d="M168.817,323.793h-24.736h-2.205h-18.001h-6.735H96.935c-3.72,0-6.735,3-6.735,6.7v21.597v5.202v20.81
		v0.787v26.012c0,3.7,3.016,6.7,6.735,6.7h20.206h6.735h18.001h2.205h24.736c3.72,0,6.735-2.999,6.735-6.7v-26.012v-0.787v-20.81
		v-5.202v-21.597C175.552,326.793,172.536,323.793,168.817,323.793z"/>
	<path fill="#9ECBFF" d="M225.643,285.642c0-3.7,3.016-6.7,6.735-6.7h26.941c3.72,0,6.735,3,6.735,6.7v26.799
		c0,3.7-3.015,6.7-6.735,6.7h-26.941c-3.72,0-6.735-2.999-6.735-6.7V285.642z"/>
	<path fill="#115DF6" d="M259.319,323.793h-26.941c-3.72,0-6.735,3-6.735,6.7v21.597v5.202v20.81v0.787v26.012
		c0,3.7,3.016,6.7,6.735,6.7h26.941c3.72,0,6.735-2.999,6.735-6.7v-26.012v-0.787v-20.81v-5.202v-21.597
		C266.054,326.793,263.039,323.793,259.319,323.793z"/>
	<linearGradient id="SVGID_8_" gradientUnits="userSpaceOnUse" x1="117.564" y1="367.6973" x2="216.6902" y2="367.6973">
		<stop  offset="0" style="stop-color:#11C293"/>
		<stop  offset="1" style="stop-color:#11C293;stop-opacity:0"/>
	</linearGradient>
	<path fill="url(#SVGID_8_)" d="M214.233,323.793h-24.736h-2.205h-18.001h-6.735h-20.206c-3.72,0-6.735,3-6.735,6.7v21.597v5.202
		v20.81v0.787v26.012c0,3.7,3.016,6.7,6.735,6.7h20.206h6.735h18.001h2.205h24.736c3.72,0,6.735-2.999,6.735-6.7v-26.012v-0.787
		v-20.81v-5.202v-21.597C220.968,326.793,217.953,323.793,214.233,323.793z"/>
	<g>
		<g>
			<linearGradient id="SVGID_9_" gradientUnits="userSpaceOnUse" x1="315.1535" y1="379.3365" x2="588.7939" y2="381.0468">
				<stop  offset="0.3854" style="stop-color:#0055FF"/>
				<stop  offset="1" style="stop-color:#0C41AC"/>
			</linearGradient>
			<path fill="url(#SVGID_9_)" d="M406.78,412.507c-5.641,0-11.283,0-16.924,0c1.425,1.425,2.85,2.85,4.276,4.276
				c0-24.617,0-49.235,0-73.852c-1.425,1.425-2.85,2.85-4.276,4.276c5.641,0,11.283,0,16.924,0c5.514,0,5.514-8.551,0-8.551
				c-5.641,0-11.283,0-16.924,0c-2.331,0-4.276,1.945-4.276,4.276c0,24.617,0,49.235,0,73.852c0,2.331,1.945,4.276,4.276,4.276
				c5.641,0,11.283,0,16.924,0C412.295,421.058,412.295,412.507,406.78,412.507L406.78,412.507z"/>
		</g>
	</g>
	<g>
		<g>
			<linearGradient id="SVGID_10_" gradientUnits="userSpaceOnUse" x1="363.1855" y1="378.2696" x2="636.8259" y2="379.9798">
				<stop  offset="0.3854" style="stop-color:#0055FF"/>
				<stop  offset="1" style="stop-color:#0C41AC"/>
			</linearGradient>
			<path fill="url(#SVGID_10_)" d="M608.601,347.206c5.641,0,11.283,0,16.924,0c-1.425-1.425-2.85-2.85-4.276-4.276
				c0,24.617,0,49.235,0,73.852c1.425-1.425,2.85-2.85,4.276-4.276c-5.641,0-11.283,0-16.924,0c-5.514,0-5.514,8.551,0,8.551
				c5.641,0,11.283,0,16.924,0c2.331,0,4.276-1.945,4.276-4.276c0-24.617,0-49.235,0-73.852c0-2.331-1.945-4.276-4.276-4.276
				c-5.641,0-11.283,0-16.924,0C603.086,338.655,603.086,347.206,608.601,347.206L608.601,347.206z"/>
		</g>
	</g>
</g>
</svg>
