<?xml version="1.0" encoding="utf-8"?>
<!-- Generator: Adobe Illustrator 17.0.0, SVG Export Plug-In . SVG Version: 6.00 Build 0)  -->
<!DOCTYPE svg PUBLIC "-//W3C//DTD SVG 1.1//EN" "http://www.w3.org/Graphics/SVG/1.1/DTD/svg11.dtd">
<svg version="1.1" id="Layer_1" xmlns="http://www.w3.org/2000/svg" xmlns:xlink="http://www.w3.org/1999/xlink" x="0px" y="0px"
	 width="720px" height="720px" viewBox="0 0 720 720" enable-background="new 0 0 720 720" xml:space="preserve">
<g>
	<path fill="#11C293" fill-opacity="0.3" d="M460.259,173.048h-75.933c-10.484,0-18.984,8.455-18.984,18.883v70.17v5.364v49.042
		v21.128v44.73v4.312v5.364v60.494v5.365v4.312v65.858c0,10.43,8.5,18.883,18.984,18.883h75.933
		c10.484,0,18.983-8.454,18.983-18.883v-65.858v-4.312v-5.365v-60.494v-5.364v-4.312v-44.73v-21.128v-49.042v-5.364v-70.17
		C479.241,181.503,470.743,173.048,460.259,173.048z"/>
	<path fill="#9ECBFF" d="M333.759,299.463h-69.718h-6.215h-50.735h-18.983h-56.95c-10.484,0-18.984,8.455-18.984,18.883v60.872
		v14.663v58.654v2.217v73.317c0,10.43,8.5,18.883,18.984,18.883h56.95h18.983h50.735h6.215h69.718
		c10.484,0,18.983-8.454,18.983-18.883v-73.317v-2.217V393.88v-14.663v-60.872C352.742,307.918,344.243,299.463,333.759,299.463z"/>
	<path fill="#9ECBFF" d="M493.927,191.931c0-10.428,8.5-18.883,18.984-18.883h75.933c10.484,0,18.983,8.455,18.983,18.883v75.534
		c0,10.43-8.498,18.883-18.983,18.883h-75.933c-10.484,0-18.984-8.454-18.984-18.883V191.931z"/>
	<path fill="#115DF6" d="M588.844,299.463h-75.933c-10.484,0-18.984,8.455-18.984,18.883v60.872v14.663v58.654v2.217v73.317
		c0,10.43,8.5,18.883,18.984,18.883h75.933c10.484,0,18.983-8.454,18.983-18.883v-73.317v-2.217V393.88v-14.663v-60.872
		C607.827,307.918,599.328,299.463,588.844,299.463z"/>
	<linearGradient id="SVGID_1_" gradientUnits="userSpaceOnUse" x1="189.3015" y1="423.2075" x2="468.692" y2="423.2075">
		<stop  offset="0" style="stop-color:#11C293"/>
		<stop  offset="1" style="stop-color:#11C293;stop-opacity:0"/>
	</linearGradient>
	<path fill="url(#SVGID_1_)" d="M461.767,299.463h-69.718h-6.215h-50.735h-18.983h-56.95c-10.484,0-18.984,8.455-18.984,18.883
		v60.872v14.663v58.654v2.217v73.317c0,10.43,8.5,18.883,18.984,18.883h56.95h18.983h50.735h6.215h69.718
		c10.484,0,18.983-8.454,18.983-18.883v-73.317v-2.217V393.88v-14.663v-60.872C480.749,307.918,472.251,299.463,461.767,299.463z"/>
</g>
</svg>
