<?xml version="1.0" encoding="utf-8"?>
<!-- Generator: Adobe Illustrator 17.0.0, SVG Export Plug-In . SVG Version: 6.00 Build 0)  -->
<!DOCTYPE svg PUBLIC "-//W3C//DTD SVG 1.1//EN" "http://www.w3.org/Graphics/SVG/1.1/DTD/svg11.dtd">
<svg version="1.1" id="Layer_1" xmlns="http://www.w3.org/2000/svg" xmlns:xlink="http://www.w3.org/1999/xlink" x="0px" y="0px"
	 width="720px" height="206.99px" viewBox="0 0 720 206.99" enable-background="new 0 0 720 206.99" xml:space="preserve">
<g>
	<linearGradient id="SVGID_1_" gradientUnits="userSpaceOnUse" x1="281.2209" y1="152.6975" x2="689.0322" y2="155.2463">
		<stop  offset="0.3854" style="stop-color:#0055FF"/>
		<stop  offset="1" style="stop-color:#0C41AC"/>
	</linearGradient>
	<path fill="url(#SVGID_1_)" d="M274.539,178.177c-4.151,0-6.225-2.14-6.225-6.425v-37.95c0-4.218,2.041-6.326,6.125-6.326
		c4.082,0,6.124,2.108,6.124,6.326v2.108c1.673-2.811,3.931-4.953,6.777-6.427c2.844-1.47,6.04-2.209,9.587-2.209
		c11.579,0,17.369,6.728,17.369,20.18v24.297c0,4.285-2.075,6.425-6.224,6.425c-4.216,0-6.325-2.14-6.325-6.425v-23.694
		c0-3.815-0.721-6.592-2.159-8.333c-1.44-1.741-3.664-2.61-6.676-2.61c-3.681,0-6.611,1.155-8.785,3.464
		c-2.175,2.309-3.263,5.371-3.263,9.186v21.988C280.864,176.036,278.755,178.177,274.539,178.177z"/>
	<linearGradient id="SVGID_2_" gradientUnits="userSpaceOnUse" x1="281.2914" y1="141.4111" x2="689.1027" y2="143.9599">
		<stop  offset="0.3854" style="stop-color:#0055FF"/>
		<stop  offset="1" style="stop-color:#0C41AC"/>
	</linearGradient>
	<path fill="url(#SVGID_2_)" d="M345.921,178.177c-4.285,0-8.049-1.036-11.295-3.112c-3.247-2.074-5.773-5.036-7.58-8.885
		c-1.807-3.849-2.711-8.384-2.711-13.605c0-5.287,0.904-9.82,2.711-13.603c1.808-3.781,4.333-6.71,7.58-8.786
		c3.246-2.072,7.01-3.112,11.295-3.112c3.479,0,6.626,0.771,9.437,2.309c2.811,1.542,4.92,3.582,6.326,6.126v-23.594
		c0-4.216,2.073-6.325,6.224-6.325c4.216,0,6.325,2.108,6.325,6.325v59.636c0,4.285-2.075,6.425-6.224,6.425
		c-4.151,0-6.224-2.141-6.224-6.425v-2.108c-1.405,2.676-3.515,4.803-6.326,6.375C352.647,177.39,349.468,178.177,345.921,178.177z
		 M349.435,168.64c3.748,0,6.759-1.355,9.035-4.066c2.275-2.711,3.414-6.71,3.414-11.999c0-5.353-1.139-9.353-3.414-11.997
		c-2.276-2.644-5.288-3.965-9.035-3.965c-3.749,0-6.761,1.321-9.036,3.965c-2.276,2.644-3.413,6.644-3.413,11.997
		c0,5.288,1.137,9.288,3.413,11.999C342.673,167.284,345.685,168.64,349.435,168.64z"/>
	<g>
		<linearGradient id="SVGID_3_" gradientUnits="userSpaceOnUse" x1="299.1372" y1="140.7719" x2="706.9485" y2="143.3207">
			<stop  offset="0.3854" style="stop-color:#0055FF"/>
			<stop  offset="1" style="stop-color:#0C41AC"/>
		</linearGradient>
		<path fill="url(#SVGID_3_)" d="M436.837,118.34c-2.343,0-4.166-0.584-5.471-1.757c-1.305-1.171-1.958-2.793-1.958-4.869
			c0-2.142,0.653-3.781,1.958-4.919s3.128-1.707,5.471-1.707c4.953,0,7.431,2.209,7.431,6.626S441.791,118.34,436.837,118.34z
			 M436.837,178.177c-2.008,0-3.548-0.602-4.618-1.807c-1.07-1.205-1.606-2.877-1.606-5.02v-36.845c0-4.552,2.074-6.828,6.224-6.828
			c4.218,0,6.326,2.277,6.326,6.828v36.845c0,2.142-0.538,3.815-1.606,5.02C440.485,177.575,438.911,178.177,436.837,178.177z"/>
		<linearGradient id="SVGID_4_" gradientUnits="userSpaceOnUse" x1="299.0693" y1="151.6347" x2="706.8806" y2="154.1835">
			<stop  offset="0.3854" style="stop-color:#0055FF"/>
			<stop  offset="1" style="stop-color:#0C41AC"/>
		</linearGradient>
		<path fill="url(#SVGID_4_)" d="M462.437,178.177c-4.15,0-6.224-2.14-6.224-6.425v-37.95c0-4.218,2.042-6.326,6.124-6.326
			s6.126,2.108,6.126,6.326v2.108c1.671-2.811,3.93-4.953,6.776-6.427c2.843-1.47,6.04-2.209,9.587-2.209
			c11.579,0,17.37,6.728,17.37,20.18v24.297c0,4.285-2.076,6.425-6.224,6.425c-4.218,0-6.326-2.14-6.326-6.425v-23.694
			c0-3.815-0.719-6.592-2.158-8.333s-3.664-2.61-6.676-2.61c-3.682,0-6.61,1.155-8.784,3.464c-2.176,2.309-3.263,5.371-3.263,9.186
			v21.988C468.764,176.036,466.655,178.177,462.437,178.177z"/>
		<linearGradient id="SVGID_5_" gradientUnits="userSpaceOnUse" x1="299.1398" y1="140.3482" x2="706.9511" y2="142.897">
			<stop  offset="0.3854" style="stop-color:#0055FF"/>
			<stop  offset="1" style="stop-color:#0C41AC"/>
		</linearGradient>
		<path fill="url(#SVGID_5_)" d="M533.821,178.177c-4.285,0-8.049-1.036-11.296-3.112c-3.247-2.074-5.773-5.036-7.58-8.885
			c-1.807-3.849-2.711-8.384-2.711-13.605c0-5.287,0.904-9.82,2.711-13.603c1.807-3.781,4.333-6.71,7.58-8.786
			c3.247-2.072,7.011-3.112,11.296-3.112c3.48,0,6.626,0.771,9.437,2.309c2.811,1.542,4.919,3.582,6.325,6.126v-23.594
			c0-4.216,2.074-6.325,6.226-6.325c4.216,0,6.325,2.108,6.325,6.325v59.636c0,4.285-2.076,6.425-6.224,6.425
			c-4.152,0-6.226-2.141-6.226-6.425v-2.108c-1.405,2.676-3.514,4.803-6.325,6.375C540.547,177.39,537.367,178.177,533.821,178.177z
			 M537.335,168.64c3.747,0,6.76-1.355,9.035-4.066c2.275-2.711,3.413-6.71,3.413-11.999c0-5.353-1.138-9.353-3.413-11.997
			c-2.275-2.644-5.288-3.965-9.035-3.965c-3.749,0-6.762,1.321-9.035,3.965c-2.277,2.644-3.413,6.644-3.413,11.997
			c0,5.288,1.137,9.288,3.413,11.999C530.573,167.284,533.586,168.64,537.335,168.64z"/>
		<linearGradient id="SVGID_6_" gradientUnits="userSpaceOnUse" x1="299.0748" y1="150.7559" x2="706.8861" y2="153.3047">
			<stop  offset="0.3854" style="stop-color:#0055FF"/>
			<stop  offset="1" style="stop-color:#0C41AC"/>
		</linearGradient>
		<path fill="url(#SVGID_6_)" d="M599.378,178.177c-5.556,0-10.34-1.036-14.356-3.112c-4.017-2.074-7.113-5.02-9.288-8.834
			s-3.263-8.334-3.263-13.555c0-5.086,1.054-9.537,3.162-13.352s5.02-6.81,8.736-8.987c3.714-2.173,7.947-3.263,12.7-3.263
			c6.961,0,12.465,2.209,16.514,6.628c4.05,4.417,6.076,10.441,6.076,18.07c0,2.478-1.606,3.714-4.821,3.714H584.52
			c0.936,8.77,5.955,13.153,15.059,13.153c1.739,0,3.697-0.217,5.873-0.653c2.175-0.436,4.233-1.189,6.174-2.259
			c1.741-1.004,3.213-1.321,4.419-0.954c1.205,0.368,2.058,1.088,2.56,2.158c0.502,1.07,0.567,2.259,0.201,3.564
			c-0.369,1.305-1.323,2.426-2.861,3.363c-2.345,1.474-5.038,2.56-8.083,3.263C604.816,177.826,601.989,178.177,599.378,178.177z
			 M597.571,135.609c-3.682,0-6.662,1.138-8.935,3.413c-2.277,2.275-3.65,5.355-4.116,9.236h24.696
			c-0.267-4.082-1.389-7.212-3.363-9.387C603.88,136.697,601.117,135.609,597.571,135.609z"/>
		<linearGradient id="SVGID_7_" gradientUnits="userSpaceOnUse" x1="299.0746" y1="150.7849" x2="706.8859" y2="153.3338">
			<stop  offset="0.3854" style="stop-color:#0055FF"/>
			<stop  offset="1" style="stop-color:#0C41AC"/>
		</linearGradient>
		<path fill="url(#SVGID_7_)" d="M632.71,178.177c-1.472,0-2.694-0.419-3.664-1.255c-0.97-0.835-1.472-1.924-1.506-3.263
			c-0.034-1.339,0.518-2.745,1.656-4.216l13.856-17.068L630.2,136.513c-1.205-1.472-1.773-2.877-1.707-4.216
			c0.066-1.339,0.586-2.426,1.556-3.265c0.97-0.835,2.193-1.255,3.664-1.255c1.54,0,2.827,0.269,3.865,0.803
			c1.038,0.538,1.992,1.373,2.863,2.51l9.838,12.651l9.939-12.651c0.938-1.137,1.907-1.972,2.911-2.51
			c1.004-0.534,2.243-0.803,3.715-0.803c1.54,0,2.777,0.437,3.716,1.305c0.936,0.871,1.42,1.976,1.456,3.315
			c0.032,1.339-0.552,2.745-1.757,4.216l-12.852,15.761l13.956,17.068c1.205,1.405,1.771,2.777,1.707,4.116
			c-0.068,1.339-0.588,2.443-1.556,3.313c-0.972,0.869-2.227,1.305-3.766,1.305c-2.677,0-4.885-1.104-6.626-3.313l-10.943-13.755
			l-10.842,13.755c-0.871,1.072-1.809,1.891-2.813,2.46C635.521,177.892,634.25,178.177,632.71,178.177z"/>
	</g>
	<path fill="#11C293" fill-opacity="0.3" d="M173.551,12.938h-34.334c-4.74,0-8.584,3.823-8.584,8.538v31.727v2.426v22.174v9.553
		v20.225v1.95v2.425v27.352v2.426v1.95v29.778c0,4.716,3.843,8.538,8.584,8.538h34.334c4.74,0,8.583-3.822,8.583-8.538v-29.778
		v-1.95v-2.426v-27.352v-2.425v-1.95V87.357v-9.553V55.629v-2.426V21.476C182.134,16.761,178.292,12.938,173.551,12.938z"/>
	<path fill="#9ECBFF" d="M116.354,70.097H84.831h-2.81h-22.94h-8.583h-25.75c-4.74,0-8.584,3.823-8.584,8.538v27.523v6.63v26.521
		v1.003v33.151c0,4.716,3.843,8.538,8.584,8.538h25.75h8.583h22.94h2.81h31.523c4.741,0,8.583-3.822,8.583-8.538v-33.151v-1.003
		v-26.521v-6.63V78.635C124.937,73.92,121.095,70.097,116.354,70.097z"/>
	<path fill="#9ECBFF" d="M188.774,21.476c0-4.715,3.843-8.538,8.584-8.538h34.333c4.741,0,8.583,3.823,8.583,8.538v34.153
		c0,4.716-3.843,8.538-8.583,8.538h-34.333c-4.741,0-8.584-3.822-8.584-8.538V21.476z"/>
	<path fill="#115DF6" d="M231.692,70.097h-34.333c-4.74,0-8.584,3.823-8.584,8.538v27.523v6.63v26.521v1.003v33.151
		c0,4.716,3.843,8.538,8.584,8.538h34.333c4.741,0,8.583-3.822,8.583-8.538v-33.151v-1.003v-26.521v-6.63V78.635
		C240.275,73.92,236.432,70.097,231.692,70.097z"/>
	<linearGradient id="SVGID_8_" gradientUnits="userSpaceOnUse" x1="51.037" y1="126.0485" x2="177.3645" y2="126.0485">
		<stop  offset="0" style="stop-color:#11C293"/>
		<stop  offset="1" style="stop-color:#11C293;stop-opacity:0"/>
	</linearGradient>
	<path fill="url(#SVGID_8_)" d="M174.233,70.097H142.71h-2.81h-22.94h-8.583h-25.75c-4.74,0-8.584,3.823-8.584,8.538v27.523v6.63
		v26.521v1.003v33.151c0,4.716,3.843,8.538,8.584,8.538h25.75h8.583h22.94h2.81h31.523c4.741,0,8.583-3.822,8.583-8.538v-33.151
		v-1.003v-26.521v-6.63V78.635C182.816,73.92,178.974,70.097,174.233,70.097z"/>
	<g>
		<g>
			<linearGradient id="SVGID_9_" gradientUnits="userSpaceOnUse" x1="302.8472" y1="140.8816" x2="651.5773" y2="143.0612">
				<stop  offset="0.3854" style="stop-color:#0055FF"/>
				<stop  offset="1" style="stop-color:#0C41AC"/>
			</linearGradient>
			<path fill="url(#SVGID_9_)" d="M419.617,183.154c-7.19,0-14.379,0-21.569,0c1.816,1.816,3.633,3.633,5.449,5.449
				c0-31.373,0-62.745,0-94.118c-1.816,1.816-3.633,3.633-5.449,5.449c7.19,0,14.379,0,21.569,0c7.028,0,7.028-10.898,0-10.898
				c-7.19,0-14.379,0-21.569,0c-2.97,0-5.449,2.479-5.449,5.449c0,31.373,0,62.745,0,94.118c0,2.97,2.479,5.449,5.449,5.449
				c7.19,0,14.379,0,21.569,0C426.645,194.052,426.645,183.154,419.617,183.154L419.617,183.154z"/>
		</g>
	</g>
	<g>
		<g>
			<linearGradient id="SVGID_10_" gradientUnits="userSpaceOnUse" x1="364.0596" y1="139.5219" x2="712.7897" y2="141.7015">
				<stop  offset="0.3854" style="stop-color:#0055FF"/>
				<stop  offset="1" style="stop-color:#0C41AC"/>
			</linearGradient>
			<path fill="url(#SVGID_10_)" d="M676.819,99.934c7.19,0,14.379,0,21.569,0c-1.816-1.816-3.633-3.633-5.449-5.449
				c0,31.373,0,62.745,0,94.118c1.816-1.816,3.633-3.633,5.449-5.449c-7.19,0-14.379,0-21.569,0c-7.028,0-7.028,10.898,0,10.898
				c7.19,0,14.379,0,21.569,0c2.97,0,5.449-2.479,5.449-5.449c0-31.373,0-62.745,0-94.118c0-2.97-2.479-5.449-5.449-5.449
				c-7.19,0-14.379,0-21.569,0C669.791,89.036,669.791,99.934,676.819,99.934L676.819,99.934z"/>
		</g>
	</g>
</g>
</svg>
